<?xml version="1.0" encoding="UTF-8"?>
<svg id="a" data-name="Layer_1" xmlns="http://www.w3.org/2000/svg" width="1556.87" height="227.46" viewBox="0 0 1556.87 227.46">
  <g>
    <path d="M213.18,33.557l-26.273-21.826c-11.393-9.471-27.926-9.471-39.32,0l-31.784,26.401-31.758-26.401c-11.393-9.471-27.901-9.484-39.307-.026l-26.337,21.852c-9.984,8.279-15.751,20.57-15.751,33.54v54.357c0,12.946,5.758,25.221,15.713,33.497l69.553,57.826c16.148,13.419,39.576,13.419,55.712,0l69.553-57.826c9.963-8.283,15.725-20.568,15.725-33.524v-54.356c0-12.944-5.767-25.235-15.725-33.514ZM208.4,117.835c0,9.138-4.075,17.814-11.099,23.658l-61.863,51.431c-11.394,9.471-27.926,9.471-39.333,0l-61.863-51.431c-7.023-5.844-11.086-14.52-11.086-23.658v-47.138c0-9.151,4.076-17.827,11.125-23.671l18.634-15.456c6.652-5.523,16.29-5.511,22.928.013l23.915,19.878-34.898,28.977c-8.625,7.177-8.638,20.416-.013,27.593l39.384,32.822c6.651,5.537,16.302,5.549,22.954.013l39.499-32.835c8.625-7.177,8.625-20.416,0-27.593l-19.175-15.94c-.949-.789-2.327-.79-3.276,0l-12.035,9.997c-1.234,1.025-1.234,2.918,0,3.943l14.263,11.857c2.474,2.051,2.474,5.831,0,7.882l-27.452,22.838c-1.91,1.576-4.665,1.576-6.562-.013l-27.375-22.813c-2.461-2.05-2.461-5.831.013-7.882l22.159-18.404,5.28-4.383,19.314-16.046,15.341-12.739,8.6-7.151c6.651-5.524,16.289-5.524,22.928,0l18.596,15.443c7.023,5.844,11.099,14.508,11.099,23.658v47.15Z"/>
    <g>
      <path d="M309.505,27.434h49.319c1.261,0,2.284,1.022,2.284,2.284v14.927c0,1.261-1.022,2.284-2.284,2.284h-46.442c-9.774,0-17.697,7.923-17.697,17.697v15.779c0,1.261,1.022,2.284,2.284,2.284h51.357c1.261,0,2.284,1.022,2.284,2.284v13.844c0,1.261-1.022,2.284-2.284,2.284h-51.357c-1.261,0-2.284,1.022-2.284,2.284v52.651c0,1.261-1.022,2.284-2.284,2.284h-16.007c-1.261,0-2.284-1.022-2.284-2.284V62.828c0-19.548,15.847-35.395,35.395-35.395Z"/>
      <path d="M533.204,70.413c-5.897-5.293-13.96-7.942-24.187-7.942-.281,0-.559.006-.837.013-.271-.006-.543-.013-.815-.013-10.026,0-19.129,3.951-25.839,10.38-.726.696-1.93.185-1.93-.821v-4.749c0-1.261-1.022-2.284-2.284-2.284h-14.927c-1.261,0-2.284,1.022-2.284,2.284v88.75c0,1.261,1.022,2.284,2.284,2.284h16.01c1.261,0,2.284-1.022,2.284-2.284v-52.768c0-3.368.542-6.557,1.625-9.566,1.083-3.006,2.586-5.624,4.512-7.852,1.923-2.225,4.27-3.971,7.039-5.235,2.767-1.263,5.894-1.895,9.386-1.895,6.137,0,10.649,1.656,13.538,4.964,2.888,3.311,4.45,8.636,4.693,15.974v56.378c0,1.261,1.022,2.284,2.284,2.284h16.01c1.261,0,2.284-1.022,2.284-2.284v-61.793c0-10.587-2.95-18.529-8.845-23.826Z"/>
      <path d="M445.001,67.252v99.506c0,19.552-15.846,35.398-35.392,35.398h-39.286c-1.263,0-2.288-1.025-2.288-2.288v-14.921c0-1.263,1.025-2.288,2.288-2.288h36.404c9.776,0,18.777-8.113,18.777-17.89v-13.47c0-1.013-1.213-1.544-1.95-.844-6.707,6.413-15.802,10.358-25.816,10.358-.275,0-.544-.006-.819-.012-.275.006-.556.012-.831.012-10.226,0-18.29-2.644-24.191-7.938-5.895-5.301-8.845-13.239-8.845-23.828v-61.795c0-1.256,1.025-2.281,2.288-2.281h16.008c1.263,0,2.281,1.025,2.281,2.281v56.382c.244,7.338,1.807,12.664,4.694,15.971,2.888,3.313,7.401,4.963,13.539,4.963,3.488,0,6.62-.631,9.383-1.894,2.769-1.263,5.119-3.007,7.038-5.232,1.925-2.231,3.432-4.844,4.513-7.851,1.081-3.013,1.625-6.201,1.625-9.57v-52.769c0-1.256,1.025-2.281,2.281-2.281h16.014c1.257,0,2.282,1.025,2.282,2.281Z"/>
      <path d="M624.3,29.717v42.343c0,1.002-1.201,1.521-1.924.826-3.429-3.294-7.487-5.937-11.974-7.737-.149-.071-.308-.142-.479-.213-10.229-4.262-23.191-1.996-23.191-1.996l.004.008c-2.942.451-5.854,1.219-8.733,2.32-4.873,1.867-9.205,4.783-12.996,8.754-3.79,3.971-6.831,9.025-9.115,15.162-2.287,6.137-3.429,13.419-3.429,21.84,0,6.98.903,13.509,2.708,19.584,1.805,6.078,4.512,11.343,8.123,15.793,3.61,4.453,8.15,7.973,13.628,10.559,5.474,2.586,11.882,3.88,19.223,3.88.188,0,.372-.012.56-.014.301.007.601.014.904.014,10.031,0,19.137-3.955,25.848-10.389.726-.696,1.93-.186,1.93.82v4.758c0,1.261,1.022,2.284,2.284,2.284h14.927c1.261,0,2.284-1.022,2.284-2.284V29.717c0-1.261-1.022-2.284-2.284-2.284h-16.01c-1.261,0-2.284,1.022-2.284,2.284ZM579.266,134.67c-2.107-3.006-3.672-6.436-4.693-10.288-1.024-3.85-1.534-7.762-1.534-11.732,0-4.211.451-8.331,1.354-12.364.903-4.03,2.406-7.64,4.512-10.83,2.104-3.187,4.812-5.776,8.123-7.761,3.308-1.986,7.369-2.978,12.184-2.978,7.942,0,14.228,2.888,18.862,8.664,4.631,5.776,6.949,13.839,6.949,24.187,0,4.092-.513,8.094-1.534,12.003-1.024,3.912-2.589,7.432-4.693,10.559-2.107,3.13-4.814,5.658-8.123,7.581-3.311,1.926-7.251,2.888-11.822,2.888-4.453,0-8.303-.902-11.552-2.708-3.249-1.805-5.928-4.211-8.032-7.22Z"/>
    </g>
  </g>
  <g>
    <path d="M747.056,46.908c-22.232,0-40.255,18.023-40.255,40.257v9.454c0,23.154,18.771,41.921,41.927,41.921h27.419c1.21,0,2.186.983,2.186,2.189v15.078c0,1.207-.976,2.186-2.186,2.186h-32.188c-31.866,0-57.697-25.829-57.697-57.695v-15.169c0-31.866,25.831-57.695,57.697-57.695h32.188c1.21,0,2.186.976,2.186,2.182v15.109c0,1.207-.976,2.186-2.186,2.186h-29.092l.002-.003Z"/>
    <path d="M874.483,91.46c2.093,5.991,3.144,12.518,3.144,19.586,0,7.184-1.051,13.773-3.144,19.758-2.097,5.995-5.152,11.143-9.162,15.452-4.013,4.312-8.924,7.698-14.732,10.15-5.809,2.455-12.425,3.683-19.85,3.683s-14.044-1.228-19.852-3.683c-5.809-2.452-10.72-5.837-14.73-10.15-4.013-4.312-7.069-9.457-9.164-15.452-2.097-5.984-3.143-12.574-3.143-19.758,0-7.069,1.046-13.595,3.143-19.586,2.095-5.988,5.15-11.136,9.164-15.449,4.01-4.312,8.92-7.695,14.73-10.15,5.808-2.455,12.428-3.683,19.852-3.683s14.039,1.228,19.85,3.683c5.808,2.455,10.718,5.841,14.732,10.15,4.01,4.312,7.065,9.461,9.162,15.449ZM857.148,111.042c0-3.952-.511-7.904-1.527-11.857-1.02-3.952-2.604-7.457-4.762-10.51-2.156-3.057-4.912-5.54-8.263-7.457-3.356-1.913-7.306-2.875-11.858-2.875s-8.506.962-11.858,2.875c-3.356,1.917-6.108,4.4-8.265,7.457-2.158,3.053-3.746,6.558-4.762,10.51-1.02,3.952-1.527,7.904-1.527,11.857,0,4.075.507,8.058,1.527,11.948,1.018,3.893,2.606,7.394,4.762,10.51,2.158,3.116,4.909,5.631,8.265,7.544,3.352,1.917,7.306,2.875,11.858,2.875s8.503-.958,11.858-2.875c3.351-1.913,6.108-4.428,8.263-7.544,2.158-3.116,3.742-6.617,4.762-10.51,1.018-3.889,1.527-7.876,1.527-11.948Z"/>
    <path d="M996.239,62.489c9.821,0,17.458,2.399,22.911,7.191s8.179,12.818,8.179,24.081v61.892c0,1.249-1.014,2.259-2.263,2.259h-15.961c-1.249,0-2.263-1.011-2.263-2.259v-52.012c0-3.711-.121-7.096-.358-10.153-.24-3.053-.929-5.687-2.065-7.904-1.14-2.217-2.847-3.924-5.122-5.124-2.28-1.193-5.393-1.794-9.347-1.794-6.95,0-11.983,2.154-15.097,6.47-3.115,4.312-4.671,10.423-4.671,18.327v52.19c0,1.249-1.013,2.263-2.263,2.263h-15.959c-1.25,0-2.265-1.014-2.265-2.263v-57.398c0-6.47-1.165-11.353-3.501-14.648-2.338-3.291-6.621-4.942-12.85-4.942-2.637,0-5.182.539-7.635,1.616-2.459,1.081-4.617,2.637-6.472,4.673-1.857,2.039-3.354,4.554-4.493,7.548-1.138,2.997-1.707,6.411-1.707,10.244v52.907c0,1.249-1.013,2.263-2.261,2.263h-15.961c-1.249,0-2.263-1.014-2.263-2.263v-88.383c0-1.249,1.014-2.263,2.263-2.263h14.88c1.254,0,2.265,1.014,2.265,2.263v4.711c0,.997,1.194,1.511,1.913.822,6.654-6.383,15.685-10.304,25.633-10.304.271,0,.54.007.81.014h.122v-.01h-.058c.229-.003.458-.01.693-.01.219,0,.437.007.656.01h.164c5.32.119,10.288,1.368,14.903,3.76,4.295,2.228,7.485,5.537,9.574,9.926h.005c.18.385.568.651,1.023.651.365,0,.689-.171.895-.441h.005c3.198-4.061,6.818-7.32,10.87-9.772,4.552-2.756,10.244-4.138,17.073-4.138h-.003Z"/>
    <path d="M1149.216,62.489c9.821,0,17.458,2.399,22.911,7.191s8.177,12.818,8.177,24.081v61.892c0,1.249-1.013,2.259-2.261,2.259h-15.961c-1.249,0-2.263-1.011-2.263-2.259v-52.012c0-3.711-.121-7.096-.358-10.153-.24-3.053-.929-5.687-2.065-7.904-1.14-2.217-2.847-3.924-5.122-5.124-2.28-1.193-5.393-1.794-9.347-1.794-6.95,0-11.983,2.154-15.097,6.47-3.115,4.312-4.671,10.423-4.671,18.327v52.19c0,1.249-1.013,2.263-2.263,2.263h-15.959c-1.25,0-2.265-1.014-2.265-2.263v-57.398c0-6.47-1.165-11.353-3.501-14.648-2.338-3.291-6.621-4.942-12.85-4.942-2.637,0-5.182.539-7.635,1.616-2.459,1.081-4.617,2.637-6.472,4.673-1.857,2.039-3.354,4.554-4.493,7.548-1.138,2.997-1.707,6.411-1.707,10.244v52.907c0,1.249-1.013,2.263-2.261,2.263h-15.961c-1.25,0-2.263-1.014-2.263-2.263v-88.383c0-1.249,1.013-2.263,2.263-2.263h14.88c1.254,0,2.265,1.014,2.265,2.263v4.711c0,.997,1.194,1.511,1.913.822,6.654-6.383,15.685-10.304,25.633-10.304.271,0,.54.007.81.014h.122v-.01h-.058c.229-.003.456-.01.693-.01.219,0,.437.007.656.01h.164c5.32.119,10.288,1.368,14.903,3.76,4.295,2.228,7.485,5.537,9.574,9.926h.005c.18.385.568.651,1.023.651.365,0,.689-.171.895-.441h.005c3.198-4.061,6.818-7.32,10.87-9.772,4.552-2.756,10.244-4.138,17.073-4.138h-.003Z"/>
    <path d="M1215.32,119.783c.103,2.85.609,4.547,1.514,7.527,1.02,3.368,2.553,6.317,4.599,8.842,2.044,2.525,4.629,4.54,7.758,6.044,3.127,1.504,6.855,2.256,11.187,2.256,6.012,0,10.851-1.291,14.522-3.879,3.324-2.343,5.885-5.75,7.679-10.22.343-.857,1.179-1.417,2.104-1.417h14.997c1.497,0,2.609,1.427,2.198,2.868-1.117,3.907-2.744,7.46-4.877,10.66-2.648,3.97-5.836,7.306-9.562,10.013-3.728,2.707-7.91,4.753-12.539,6.135-4.629,1.378-9.47,2.074-14.522,2.074-7.338,0-13.833-1.203-19.485-3.609-5.654-2.406-10.435-5.771-14.342-10.104-3.91-4.33-6.855-9.496-8.84-15.512s-2.975-12.63-2.975-19.845c0-6.614,1.049-12.899,3.157-18.852,2.104-5.953,5.11-11.185,9.02-15.697,3.905-4.508,8.628-8.086,14.162-10.73,5.53-2.644,11.787-3.97,18.763-3.97,7.334,0,13.918,1.532,19.754,4.599,5.832,3.067,10.673,7.124,14.524,12.175,3.846,5.05,6.644,10.856,8.389,17.411,1.572,5.911,2.092,13.427,1.563,19.96-.098,1.182-1.086,2.095-2.275,2.095h-65.341c-.638,0-1.152.535-1.131,1.175ZM1262.045,103.316c.665,0,1.201-.574,1.126-1.235-.311-2.805-.965-5.523-1.96-8.146-1.144-3.004-2.707-5.621-4.692-7.845s-4.391-4.029-7.215-5.411c-2.828-1.382-5.986-2.078-9.471-2.078-3.608,0-6.887.633-9.832,1.896-2.947,1.263-5.475,3.008-7.577,5.232-2.106,2.228-3.788,4.844-5.05,7.848-1.117,2.662-1.791,5.512-2.011,8.548-.047.647.481,1.193,1.13,1.193h45.55l.003-.003Z"/>
    <path d="M1353.913,65.137v15.123c0,1.382-1.222,2.434-2.59,2.245-.6-.084-1.203-.161-1.812-.234-1.5-.182-2.964-.269-4.402-.269-3.477,0-6.738.689-9.791,2.064-3.053,1.382-5.72,3.414-7.994,6.11-2.277,2.693-4.071,6.019-5.39,9.971-1.319,3.952-1.974,8.506-1.974,13.654v41.928c0,1.249-1.014,2.263-2.265,2.263h-15.954c-1.249,0-2.261-1.014-2.261-2.263v-88.355c0-1.249,1.013-2.259,2.261-2.259h14.693c1.254,0,2.266,1.014,2.266,2.266v4.708c0,.993,1.193,1.504,1.911.818,6.652-6.376,15.681-10.3,25.626-10.3.269,0,.539.007.808.014h.122v-.014h-1.583c.199-.003.399-.007.602-.007,2.396,0,4.04.059,4.939.178.268.035.539.073.81.108,1.13.15,1.976,1.109,1.976,2.249Z"/>
    <path d="M1388.112,85.157c-2.516,2.459-4.613,5.872-6.287,10.241-1.677,4.375-2.515,10.094-2.515,17.159,0,3.833.448,7.667,1.347,11.496.899,3.837,2.336,7.247,4.312,10.241,1.976,2.994,4.517,5.418,7.633,7.275,3.111,1.861,6.885,2.788,11.316,2.788,5.988,0,10.93-1.857,14.821-5.572,3.526-3.361,5.85-7.957,6.969-13.78.203-1.07,1.128-1.85,2.216-1.85h15.863c1.437,0,2.502,1.319,2.223,2.728-2.147,10.769-6.565,19.114-13.256,25.028-7.247,6.411-16.858,9.611-28.835,9.611-7.305,0-13.744-1.228-19.312-3.683-5.568-2.452-10.272-5.809-14.102-10.059-3.835-4.253-6.738-9.314-8.714-15.183-1.976-5.865-2.966-12.217-2.966-19.044,0-6.946.96-13.476,2.875-19.583,1.917-6.107,4.79-11.405,8.623-15.896,3.832-4.494,8.595-8.023,14.284-10.601,5.687-2.574,12.364-3.861,20.029-3.861,5.391,0,10.512.689,15.363,2.064,4.849,1.378,9.162,3.445,12.934,6.201,3.772,2.756,6.853,6.229,9.253,10.419,2.027,3.553,3.368,7.663,4.024,12.332.191,1.361-.874,2.578-2.249,2.578h-16.047c-1.074,0-1.999-.748-2.219-1.798-1.03-4.862-3.228-8.604-6.598-11.227-3.772-2.931-8.534-4.4-14.28-4.4-2.637,0-5.454.448-8.445,1.35-2.996.899-5.752,2.578-8.265,5.029l.005-.003Z"/>
    <path d="M1477.752,119.783c.103,2.85.609,4.547,1.514,7.527,1.02,3.368,2.553,6.317,4.599,8.842,2.044,2.525,4.629,4.54,7.758,6.044,3.127,1.504,6.855,2.256,11.187,2.256,6.012,0,10.851-1.291,14.522-3.879,3.324-2.343,5.885-5.75,7.679-10.22.343-.857,1.179-1.417,2.102-1.417h14.999c1.497,0,2.611,1.427,2.198,2.868-1.117,3.907-2.744,7.46-4.877,10.66-2.648,3.97-5.836,7.306-9.562,10.013-3.728,2.707-7.91,4.753-12.539,6.135-4.629,1.378-9.47,2.074-14.522,2.074-7.338,0-13.833-1.203-19.485-3.609-5.654-2.406-10.435-5.771-14.342-10.104-3.91-4.33-6.855-9.496-8.84-15.512s-2.975-12.63-2.975-19.845c0-6.614,1.049-12.899,3.157-18.852,2.104-5.953,5.11-11.185,9.02-15.697,3.905-4.508,8.628-8.086,14.162-10.73,5.53-2.644,11.785-3.97,18.763-3.97,7.334,0,13.918,1.532,19.754,4.599,5.832,3.067,10.671,7.124,14.524,12.175,3.846,5.05,6.644,10.856,8.389,17.411,1.572,5.911,2.092,13.427,1.563,19.96-.098,1.182-1.086,2.095-2.275,2.095h-65.341c-.638,0-1.152.535-1.131,1.175ZM1524.477,103.316c.665,0,1.201-.574,1.126-1.235-.311-2.805-.965-5.523-1.96-8.146-1.144-3.004-2.707-5.621-4.692-7.845s-4.391-4.029-7.215-5.411c-2.828-1.382-5.986-2.078-9.471-2.078-3.608,0-6.887.633-9.832,1.896-2.947,1.263-5.475,3.008-7.577,5.232-2.106,2.228-3.788,4.844-5.05,7.848-1.117,2.662-1.791,5.512-2.011,8.548-.047.647.481,1.193,1.13,1.193h45.55l.003-.003Z"/>
  </g>
</svg>